<svg xmlns="http://www.w3.org/2000/svg" xmlns:xlink="http://www.w3.org/1999/xlink" width="1920" zoomAndPan="magnify" viewBox="0 0 1440 809.999993" height="1080" preserveAspectRatio="xMidYMid meet" version="1.0"><defs><clipPath id="d4e6fa4b94"><path d="M 0 120.667969 L 1440 120.667969 L 1440 810 L 0 810 Z M 0 120.667969 " clip-rule="nonzero"/></clipPath><clipPath id="0e5ee899f5"><path d="M 0 0 L 424.480469 0 L 424.480469 324 L 0 324 Z M 0 0 " clip-rule="nonzero"/></clipPath><clipPath id="408d2cf1e7"><path d="M 245.054688 0 L 779.804688 0 L 779.804688 324 L 245.054688 324 Z M 245.054688 0 " clip-rule="nonzero"/></clipPath><clipPath id="ad8c4248d8"><path d="M 555.027344 23.769531 L 1089.777344 23.769531 L 1089.777344 347.769531 L 555.027344 347.769531 Z M 555.027344 23.769531 " clip-rule="nonzero"/></clipPath><clipPath id="89f940b972"><path d="M 892.46875 0 L 1427 0 L 1427 324 L 892.46875 324 Z M 892.46875 0 " clip-rule="nonzero"/></clipPath><clipPath id="a031d55897"><path d="M 1172.785156 37.503906 L 1440 37.503906 L 1440 361.503906 L 1172.785156 361.503906 Z M 1172.785156 37.503906 " clip-rule="nonzero"/></clipPath></defs><g clip-path="url(#d4e6fa4b94)"><path fill="#ffdd59" d="M 0 120.667969 L 1439.453125 120.667969 L 1439.453125 837.59375 L 0 837.59375 Z M 0 120.667969 " fill-opacity="1" fill-rule="nonzero"/></g><g clip-path="url(#0e5ee899f5)"><path fill="#ffdd59" d="M 364.132812 137.796875 C 366.878906 130.542969 368.417969 122.6875 368.417969 114.457031 C 368.417969 78.191406 339.03125 48.765625 302.726562 48.765625 C 295.320312 48.765625 288.253906 50.003906 281.605469 52.257812 C 265.332031 21.214844 232.746094 0.0195312 195.238281 0.0195312 C 149.652344 0.0195312 111.394531 31.289062 100.71875 73.53125 C 89.78125 64.023438 75.539062 58.234375 59.90625 58.234375 C 25.554688 58.234375 -2.292969 86.082031 -2.292969 120.433594 C -2.292969 120.960938 -2.292969 121.449219 -2.257812 121.976562 C -12.515625 116.5625 -24.203125 113.445312 -36.644531 113.445312 C -77.308594 113.480469 -110.269531 146.441406 -110.269531 187.105469 C -110.269531 227.769531 -77.308594 260.765625 -36.605469 260.765625 C -29.578125 260.765625 -22.777344 259.75 -16.351562 257.910156 C -7.820312 292.109375 23.074219 317.476562 59.941406 317.476562 C 84.070312 317.476562 105.605469 306.617188 120.035156 289.515625 C 130.109375 309.925781 151.117188 323.941406 175.394531 323.941406 C 199.671875 323.941406 219.441406 310.714844 229.851562 291.285156 C 230.191406 291.171875 230.527344 291.09375 230.867188 290.984375 C 240.527344 300.867188 254.019531 307.03125 268.9375 307.03125 C 295.246094 307.03125 317.082031 287.9375 321.402344 262.871094 C 331.625 269.109375 343.652344 272.679688 356.542969 272.679688 C 393.898438 272.679688 424.230469 242.390625 424.230469 204.996094 C 424.230469 170.230469 397.996094 141.554688 364.210938 137.757812 Z M 364.132812 137.796875 " fill-opacity="1" fill-rule="nonzero"/></g><g clip-path="url(#408d2cf1e7)"><path fill="#ffdd59" d="M 719.457031 137.796875 C 722.203125 130.542969 723.742188 122.6875 723.742188 114.457031 C 723.742188 78.191406 694.355469 48.765625 658.050781 48.765625 C 650.644531 48.765625 643.578125 50.003906 636.929688 52.257812 C 620.65625 21.214844 588.070312 0.0195312 550.5625 0.0195312 C 504.976562 0.0195312 466.71875 31.289062 456.042969 73.53125 C 445.105469 64.023438 430.863281 58.234375 415.230469 58.234375 C 380.878906 58.234375 353.03125 86.082031 353.03125 120.433594 C 353.03125 120.960938 353.03125 121.449219 353.066406 121.976562 C 342.808594 116.5625 331.121094 113.445312 318.679688 113.445312 C 278.015625 113.480469 245.054688 146.441406 245.054688 187.105469 C 245.054688 227.769531 278.015625 260.765625 318.71875 260.765625 C 325.746094 260.765625 332.546875 259.75 338.972656 257.910156 C 347.503906 292.109375 378.398438 317.476562 415.265625 317.476562 C 439.394531 317.476562 460.929688 306.617188 475.359375 289.515625 C 485.433594 309.925781 506.441406 323.941406 530.71875 323.941406 C 555 323.941406 574.765625 310.714844 585.175781 291.285156 C 585.515625 291.171875 585.851562 291.09375 586.191406 290.984375 C 595.851562 300.867188 609.34375 307.03125 624.261719 307.03125 C 650.570312 307.03125 672.40625 287.9375 676.726562 262.871094 C 686.949219 269.109375 698.976562 272.679688 711.867188 272.679688 C 749.222656 272.679688 779.554688 242.390625 779.554688 204.996094 C 779.554688 170.230469 753.320312 141.554688 719.535156 137.757812 Z M 719.457031 137.796875 " fill-opacity="1" fill-rule="nonzero"/></g><g clip-path="url(#ad8c4248d8)"><path fill="#ffdd59" d="M 1029.429688 161.566406 C 1032.175781 154.316406 1033.714844 146.460938 1033.714844 138.230469 C 1033.714844 101.960938 1004.328125 72.535156 968.023438 72.535156 C 960.617188 72.535156 953.550781 73.777344 946.902344 76.03125 C 930.628906 44.988281 898.042969 23.789062 860.535156 23.789062 C 814.949219 23.789062 776.691406 55.058594 766.015625 97.300781 C 755.078125 87.792969 740.835938 82.007812 725.203125 82.007812 C 690.851562 82.007812 663.003906 109.855469 663.003906 144.203125 C 663.003906 144.730469 663.003906 145.21875 663.039062 145.746094 C 652.78125 140.335938 641.09375 137.214844 628.652344 137.214844 C 587.988281 137.253906 555.027344 170.210938 555.027344 210.875 C 555.027344 251.539062 587.988281 284.539062 628.691406 284.539062 C 635.71875 284.539062 642.519531 283.523438 648.945312 281.679688 C 657.476562 315.882812 688.371094 341.25 725.238281 341.25 C 749.367188 341.25 770.902344 330.386719 785.332031 313.289062 C 795.40625 333.695312 816.414062 347.714844 840.691406 347.714844 C 864.972656 347.714844 884.738281 334.484375 895.148438 315.054688 C 895.488281 314.941406 895.824219 314.867188 896.164062 314.753906 C 905.824219 324.636719 919.316406 330.800781 934.234375 330.800781 C 960.542969 330.800781 982.378906 311.710938 986.699219 286.640625 C 996.921875 292.882812 1008.949219 296.453125 1021.839844 296.453125 C 1059.195312 296.453125 1089.527344 266.160156 1089.527344 228.765625 C 1089.527344 194 1063.292969 165.328125 1029.507812 161.53125 Z M 1029.429688 161.566406 " fill-opacity="1" fill-rule="nonzero"/></g><g clip-path="url(#89f940b972)"><path fill="#ffdd59" d="M 1366.871094 137.796875 C 1369.613281 130.542969 1371.15625 122.6875 1371.15625 114.457031 C 1371.15625 78.191406 1341.765625 48.765625 1305.460938 48.765625 C 1298.058594 48.765625 1290.992188 50.003906 1284.339844 52.257812 C 1268.066406 21.214844 1235.480469 0.0195312 1197.976562 0.0195312 C 1152.386719 0.0195312 1114.128906 31.289062 1103.453125 73.53125 C 1092.519531 64.023438 1078.273438 58.234375 1062.640625 58.234375 C 1028.289062 58.234375 1000.441406 86.082031 1000.441406 120.433594 C 1000.441406 120.960938 1000.441406 121.449219 1000.480469 121.976562 C 990.21875 116.5625 978.53125 113.445312 966.089844 113.445312 C 925.425781 113.480469 892.46875 146.441406 892.46875 187.105469 C 892.46875 227.769531 925.425781 260.765625 966.128906 260.765625 C 973.15625 260.765625 979.960938 259.75 986.386719 257.910156 C 994.917969 292.109375 1025.808594 317.476562 1062.679688 317.476562 C 1086.804688 317.476562 1108.339844 306.617188 1122.773438 289.515625 C 1132.84375 309.925781 1153.851562 323.941406 1178.132812 323.941406 C 1202.410156 323.941406 1222.179688 310.714844 1232.589844 291.285156 C 1232.925781 291.171875 1233.265625 291.09375 1233.601562 290.984375 C 1243.261719 300.867188 1256.753906 307.03125 1271.675781 307.03125 C 1297.980469 307.03125 1319.816406 287.9375 1324.140625 262.871094 C 1334.359375 269.109375 1346.386719 272.679688 1359.277344 272.679688 C 1396.636719 272.679688 1426.964844 242.390625 1426.964844 204.996094 C 1426.964844 170.230469 1400.730469 141.554688 1366.945312 137.757812 Z M 1366.871094 137.796875 " fill-opacity="1" fill-rule="nonzero"/></g><g clip-path="url(#a031d55897)"><path fill="#ffdd59" d="M 1647.1875 175.300781 C 1649.929688 168.046875 1651.46875 160.191406 1651.46875 151.960938 C 1651.46875 115.695312 1622.082031 86.269531 1585.777344 86.269531 C 1578.371094 86.269531 1571.308594 87.507812 1564.65625 89.761719 C 1548.382812 58.71875 1515.796875 37.523438 1478.289062 37.523438 C 1432.703125 37.523438 1394.445312 68.792969 1383.769531 111.035156 C 1372.835938 101.527344 1358.589844 95.738281 1342.957031 95.738281 C 1308.605469 95.738281 1280.757812 123.585938 1280.757812 157.9375 C 1280.757812 158.464844 1280.757812 158.953125 1280.796875 159.480469 C 1270.535156 154.066406 1258.847656 150.949219 1246.40625 150.949219 C 1205.742188 150.984375 1172.785156 183.945312 1172.785156 224.609375 C 1172.785156 265.273438 1205.742188 298.269531 1246.445312 298.269531 C 1253.472656 298.269531 1260.273438 297.257812 1266.703125 295.414062 C 1275.234375 329.613281 1306.125 354.984375 1342.992188 354.984375 C 1367.121094 354.984375 1388.65625 344.121094 1403.089844 327.019531 C 1413.160156 347.429688 1434.167969 361.445312 1458.449219 361.445312 C 1482.726562 361.445312 1502.492188 348.21875 1512.902344 328.789062 C 1513.242188 328.675781 1513.582031 328.601562 1513.917969 328.488281 C 1523.578125 338.371094 1537.070312 344.535156 1551.988281 344.535156 C 1578.296875 344.535156 1600.132812 325.441406 1604.453125 300.375 C 1614.675781 306.613281 1626.703125 310.183594 1639.59375 310.183594 C 1676.953125 310.183594 1707.28125 279.894531 1707.28125 242.5 C 1707.28125 207.734375 1681.046875 179.058594 1647.261719 175.261719 Z M 1647.1875 175.300781 " fill-opacity="1" fill-rule="nonzero"/></g></svg>