<svg xmlns="http://www.w3.org/2000/svg" xmlns:xlink="http://www.w3.org/1999/xlink" width="1920" zoomAndPan="magnify" viewBox="0 0 1440 809.999993" height="1080" preserveAspectRatio="xMidYMid meet" version="1.0"><defs><clipPath id="1b5ec0ac78"><path d="M 0 117.5625 L 1439 117.5625 L 1439 810 L 0 810 Z M 0 117.5625 " clip-rule="nonzero"/></clipPath><clipPath id="4717c01e20"><path d="M 0 0 L 411.726562 0 L 411.726562 324 L 0 324 Z M 0 0 " clip-rule="nonzero"/></clipPath><clipPath id="907b01cb7a"><path d="M 245.054688 0 L 779.804688 0 L 779.804688 324 L 245.054688 324 Z M 245.054688 0 " clip-rule="nonzero"/></clipPath><clipPath id="314df7bf40"><path d="M 555.027344 23.769531 L 1089.777344 23.769531 L 1089.777344 347.769531 L 555.027344 347.769531 Z M 555.027344 23.769531 " clip-rule="nonzero"/></clipPath><clipPath id="f77d8bec92"><path d="M 945.523438 16.15625 L 1427 16.15625 L 1427 307.90625 L 945.523438 307.90625 Z M 945.523438 16.15625 " clip-rule="nonzero"/></clipPath><clipPath id="83bb685bbf"><path d="M 1202 0 L 1440 0 L 1440 289 L 1202 289 Z M 1202 0 " clip-rule="nonzero"/></clipPath><clipPath id="fbdb33b693"><path d="M 1187.476562 17.300781 L 1667.089844 -25.292969 L 1692.898438 265.3125 L 1213.285156 307.90625 Z M 1187.476562 17.300781 " clip-rule="nonzero"/></clipPath><clipPath id="25f612c19c"><path d="M 1187.476562 17.300781 L 1667.089844 -25.292969 L 1692.898438 265.3125 L 1213.285156 307.90625 Z M 1187.476562 17.300781 " clip-rule="nonzero"/></clipPath></defs><g clip-path="url(#1b5ec0ac78)"><path fill="#4eb2d3" d="M 0 117.5625 L 1438.972656 117.5625 L 1438.972656 810 L 0 810 Z M 0 117.5625 " fill-opacity="1" fill-rule="nonzero"/></g><g clip-path="url(#4717c01e20)"><path fill="#4eb2d3" d="M 351.378906 137.796875 C 354.125 130.542969 355.664062 122.6875 355.664062 114.457031 C 355.664062 78.191406 326.273438 48.765625 289.96875 48.765625 C 282.566406 48.765625 275.5 50.003906 268.847656 52.257812 C 252.574219 21.214844 219.992188 0.0195312 182.484375 0.0195312 C 136.898438 0.0195312 98.636719 31.289062 87.964844 73.53125 C 77.027344 64.023438 62.785156 58.234375 47.152344 58.234375 C 12.800781 58.234375 -15.046875 86.082031 -15.046875 120.433594 C -15.046875 120.960938 -15.046875 121.449219 -15.011719 121.976562 C -25.269531 116.5625 -36.957031 113.445312 -49.398438 113.445312 C -90.0625 113.480469 -123.023438 146.441406 -123.023438 187.105469 C -123.023438 227.769531 -90.0625 260.765625 -49.359375 260.765625 C -42.332031 260.765625 -35.53125 259.75 -29.105469 257.910156 C -20.574219 292.109375 10.320312 317.476562 47.1875 317.476562 C 71.316406 317.476562 92.851562 306.617188 107.28125 289.515625 C 117.355469 309.925781 138.363281 323.941406 162.640625 323.941406 C 186.917969 323.941406 206.6875 310.714844 217.097656 291.285156 C 217.4375 291.171875 217.773438 291.09375 218.113281 290.984375 C 227.773438 300.867188 241.265625 307.03125 256.183594 307.03125 C 282.492188 307.03125 304.328125 287.9375 308.648438 262.871094 C 318.871094 269.109375 330.898438 272.679688 343.789062 272.679688 C 381.144531 272.679688 411.472656 242.390625 411.472656 204.996094 C 411.472656 170.230469 385.242188 141.554688 351.457031 137.757812 Z M 351.378906 137.796875 " fill-opacity="1" fill-rule="nonzero"/></g><g clip-path="url(#907b01cb7a)"><path fill="#4eb2d3" d="M 719.457031 137.796875 C 722.203125 130.542969 723.742188 122.6875 723.742188 114.457031 C 723.742188 78.191406 694.355469 48.765625 658.050781 48.765625 C 650.644531 48.765625 643.578125 50.003906 636.929688 52.257812 C 620.65625 21.214844 588.070312 0.0195312 550.5625 0.0195312 C 504.976562 0.0195312 466.71875 31.289062 456.042969 73.53125 C 445.105469 64.023438 430.863281 58.234375 415.230469 58.234375 C 380.878906 58.234375 353.03125 86.082031 353.03125 120.433594 C 353.03125 120.960938 353.03125 121.449219 353.066406 121.976562 C 342.808594 116.5625 331.121094 113.445312 318.679688 113.445312 C 278.015625 113.480469 245.054688 146.441406 245.054688 187.105469 C 245.054688 227.769531 278.015625 260.765625 318.71875 260.765625 C 325.746094 260.765625 332.546875 259.75 338.972656 257.910156 C 347.503906 292.109375 378.398438 317.476562 415.265625 317.476562 C 439.394531 317.476562 460.929688 306.617188 475.359375 289.515625 C 485.433594 309.925781 506.441406 323.941406 530.71875 323.941406 C 555 323.941406 574.765625 310.714844 585.175781 291.285156 C 585.515625 291.171875 585.851562 291.09375 586.191406 290.984375 C 595.851562 300.867188 609.34375 307.03125 624.261719 307.03125 C 650.570312 307.03125 672.40625 287.9375 676.726562 262.871094 C 686.949219 269.109375 698.976562 272.679688 711.867188 272.679688 C 749.222656 272.679688 779.554688 242.390625 779.554688 204.996094 C 779.554688 170.230469 753.320312 141.554688 719.535156 137.757812 Z M 719.457031 137.796875 " fill-opacity="1" fill-rule="nonzero"/></g><g clip-path="url(#314df7bf40)"><path fill="#4eb2d3" d="M 1029.429688 161.566406 C 1032.175781 154.316406 1033.714844 146.460938 1033.714844 138.230469 C 1033.714844 101.960938 1004.328125 72.535156 968.023438 72.535156 C 960.617188 72.535156 953.550781 73.777344 946.902344 76.03125 C 930.628906 44.988281 898.042969 23.789062 860.535156 23.789062 C 814.949219 23.789062 776.691406 55.058594 766.015625 97.300781 C 755.078125 87.792969 740.835938 82.007812 725.203125 82.007812 C 690.851562 82.007812 663.003906 109.855469 663.003906 144.203125 C 663.003906 144.730469 663.003906 145.21875 663.039062 145.746094 C 652.78125 140.335938 641.09375 137.214844 628.652344 137.214844 C 587.988281 137.253906 555.027344 170.210938 555.027344 210.875 C 555.027344 251.539062 587.988281 284.539062 628.691406 284.539062 C 635.71875 284.539062 642.519531 283.523438 648.945312 281.679688 C 657.476562 315.882812 688.371094 341.25 725.238281 341.25 C 749.367188 341.25 770.902344 330.386719 785.332031 313.289062 C 795.40625 333.695312 816.414062 347.714844 840.691406 347.714844 C 864.972656 347.714844 884.738281 334.484375 895.148438 315.054688 C 895.488281 314.941406 895.824219 314.867188 896.164062 314.753906 C 905.824219 324.636719 919.316406 330.800781 934.234375 330.800781 C 960.542969 330.800781 982.378906 311.710938 986.699219 286.640625 C 996.921875 292.882812 1008.949219 296.453125 1021.839844 296.453125 C 1059.195312 296.453125 1089.527344 266.160156 1089.527344 228.765625 C 1089.527344 194 1063.292969 165.328125 1029.507812 161.53125 Z M 1029.429688 161.566406 " fill-opacity="1" fill-rule="nonzero"/></g><g clip-path="url(#f77d8bec92)"><path fill="#4eb2d3" d="M 1372.613281 140.207031 C 1375.085938 133.675781 1376.472656 126.605469 1376.472656 119.195312 C 1376.472656 86.546875 1350.011719 60.054688 1317.328125 60.054688 C 1310.664062 60.054688 1304.304688 61.171875 1298.316406 63.199219 C 1283.664062 35.253906 1254.328125 16.171875 1220.5625 16.171875 C 1179.523438 16.171875 1145.078125 44.320312 1135.46875 82.351562 C 1125.625 73.789062 1112.800781 68.582031 1098.726562 68.582031 C 1067.800781 68.582031 1042.730469 93.652344 1042.730469 124.574219 C 1042.730469 125.050781 1042.730469 125.488281 1042.761719 125.964844 C 1033.527344 121.089844 1023.003906 118.28125 1011.804688 118.28125 C 975.195312 118.316406 945.523438 147.988281 945.523438 184.597656 C 945.523438 221.207031 975.195312 250.914062 1011.839844 250.914062 C 1018.164062 250.914062 1024.289062 250 1030.074219 248.34375 C 1037.757812 279.132812 1065.566406 301.96875 1098.757812 301.96875 C 1120.480469 301.96875 1139.867188 292.191406 1152.859375 276.796875 C 1161.929688 295.167969 1180.839844 307.789062 1202.699219 307.789062 C 1224.554688 307.789062 1242.351562 295.878906 1251.726562 278.386719 C 1252.027344 278.285156 1252.332031 278.21875 1252.636719 278.117188 C 1261.332031 287.015625 1273.480469 292.5625 1286.914062 292.5625 C 1310.597656 292.5625 1330.253906 275.375 1334.144531 252.808594 C 1343.347656 258.425781 1354.175781 261.640625 1365.78125 261.640625 C 1399.410156 261.640625 1426.714844 234.367188 1426.714844 200.703125 C 1426.714844 169.40625 1403.101562 143.589844 1372.683594 140.171875 Z M 1372.613281 140.207031 " fill-opacity="1" fill-rule="nonzero"/></g><g clip-path="url(#83bb685bbf)"><g clip-path="url(#fbdb33b693)"><g clip-path="url(#25f612c19c)"><path fill="#4eb2d3" d="M 1623.867188 103.082031 C 1625.75 96.359375 1626.503906 89.195312 1625.851562 81.8125 C 1622.960938 49.292969 1594.265625 25.242188 1561.707031 28.132812 C 1555.070312 28.722656 1548.832031 30.398438 1543.046875 32.949219 C 1525.980469 6.410156 1495.074219 -10.003906 1461.4375 -7.015625 C 1420.558594 -3.386719 1388.742188 27.699219 1382.535156 66.433594 C 1371.96875 58.777344 1358.734375 54.71875 1344.714844 55.964844 C 1313.910156 58.699219 1291.15625 85.890625 1293.890625 116.695312 C 1293.933594 117.167969 1293.972656 117.605469 1294.046875 118.074219 C 1284.417969 114.039062 1273.6875 112.171875 1262.53125 113.164062 C 1226.070312 116.433594 1199.136719 148.617188 1202.375 185.082031 C 1205.613281 221.546875 1237.800781 248.511719 1274.296875 245.269531 C 1280.601562 244.710938 1286.621094 243.257812 1292.234375 241.097656 C 1302.609375 271.085938 1332.332031 291.375 1365.394531 288.4375 C 1387.03125 286.515625 1405.476562 275.0625 1417.058594 258.578125 C 1427.714844 276.074219 1447.671875 286.972656 1469.441406 285.039062 C 1491.210938 283.105469 1507.886719 269.667969 1515.675781 251.414062 C 1515.96875 251.289062 1516.265625 251.191406 1516.558594 251.066406 C 1526.007812 259.160156 1538.597656 263.613281 1551.976562 262.421875 C 1575.570312 260.328125 1593.628906 241.46875 1595.507812 218.644531 C 1605.171875 223.425781 1616.242188 225.671875 1627.800781 224.644531 C 1661.300781 221.667969 1686.085938 192.089844 1683.109375 158.554688 C 1680.339844 127.382812 1654.53125 103.757812 1623.929688 103.042969 Z M 1623.867188 103.082031 " fill-opacity="1" fill-rule="nonzero"/></g></g></g></svg>